<?xml version="1.0" encoding="utf-8"?>
<!-- Generator: Adobe Illustrator 25.2.3, SVG Export Plug-In . SVG Version: 6.00 Build 0)  -->
<svg version="1.1" id="圖層_1" xmlns="http://www.w3.org/2000/svg" xmlns:xlink="http://www.w3.org/1999/xlink" x="0px" y="0px"
	 viewBox="0 0 1200 698" style="enable-background:new 0 0 1200 698;" xml:space="preserve">
<style type="text/css">
	.st0{fill:#FDC030;}
	.st1{fill:#68C3D8;}
	.st2{fill:#00A0DC;}
	.st3{fill:#79C9E8;}
	.st4{fill:#D7F0F9;}
	.st5{fill:#0582C1;}
	.st6{fill:#FFFFFF;}
	.st7{fill:#3BB5D4;}
	.st8{fill:#FFBF4D;}
	.st9{opacity:0.8;fill:#FDC030;enable-background:new    ;}
	.st10{fill:#0F4C81;}
	.st11{opacity:0.5;fill:#0F4C81;enable-background:new    ;}
</style>
<g id="圖層_2_1_">
</g>
<path class="st0" d="M765.7,583.5c82.4,38.5,142.2,142.7,233.8,92.1c45-22.8,88-69.6,106.9-103.5c19.5-35.7,22.6-130.5-33.6-159.5
	c-72.6-37.4-208.3-2.5-297.3,52.2c-45.2,25.7-66,55.8-64.1,74.4C712.9,559.7,722.8,563.4,765.7,583.5z"/>
<path class="st1" d="M936.1,264.5c-35.8,2.9-59.8,32-100.5,25.5c-42.5-6.8-69.8-117.5-165.1-148.1c-74-23.8-229.8-17-299.6,139.6
	c-69.8,156.6-3.4,332,114.1,335.4c85.1,2.5,146.4-56.2,216.2-57.9c64.7-1.6,138.7,60.4,197.5,73.2c93.6,20.4,140.5-93.8,156.6-163.4
	C1070.6,402.4,1041.7,256,936.1,264.5z"/>
<path class="st2" d="M219,495.4v-13.3h-14c-0.9-4.3-2.6-8.2-4.8-11.7l9.9-9.9l-9.4-9.4l-9.9,9.9c-3.5-2.3-7.4-4-11.7-4.8v-14h-13.3
	v14c-4.2,0.9-8.1,2.5-11.7,4.8l-9.9-9.9l-9.4,9.4l9.9,9.9c-2.4,3.5-4,7.4-4.9,11.7h-14v13.3h14c0.9,4.2,2.5,8.1,4.9,11.6l-9.9,9.9
	l9.4,9.4l9.9-9.9c3.5,2.3,7.4,4,11.7,4.9v14h13.3v-14c4.2-0.9,8.2-2.6,11.7-4.9l9.9,9.9l9.4-9.4l-9.9-9.9c2.2-3.5,3.9-7.4,4.8-11.7
	L219,495.4L219,495.4z M172.4,508.7c-11,0-19.9-9-19.9-20c0-11,8.9-19.9,19.9-19.9c11.1,0,19.9,8.9,19.9,19.9
	C192.4,499.8,183.5,508.7,172.4,508.7z"/>
<path class="st2" d="M266.9,565.4l3.5-10l-10.5-3.7c0.5-3.4,0.3-6.8-0.5-10l10-4.8l-4.5-9.5l-10,4.8c-2-2.6-4.5-4.9-7.5-6.7
	l3.7-10.5l-10-3.5l-3.7,10.5c-3.4-0.5-6.8-0.3-10,0.5l-4.8-10l-9.5,4.5l4.8,10.1c-2.7,2-5,4.5-6.8,7.4l-10.5-3.7l-3.6,10l10.5,3.7
	c-0.5,3.4-0.3,6.8,0.6,10l-10.1,4.8l4.5,9.5l10.1-4.8c2,2.7,4.5,5,7.4,6.8l-3.7,10.5l10,3.5l3.7-10.5c3.4,0.5,6.9,0.2,10.1-0.5
	l4.8,10.1l9.6-4.5l-4.8-10c2.6-2,4.9-4.5,6.7-7.5L266.9,565.4z M228.5,562.9c-8.2-2.9-12.5-12-9.6-20.3c2.9-8.2,12-12.5,20.2-9.6
	c8.3,2.9,12.6,12,9.6,20.2C245.8,561.5,236.8,565.9,228.5,562.9z"/>
<rect x="475.5" y="1.5" class="st3" width="3.6" height="266.6"/>
<rect x="737.6" y="1.5" class="st3" width="3.7" height="307.6"/>
<path class="st4" d="M855.3,199l-501.9-30.2c-21.5-1.3-39.9,15.1-41.2,36.5L293,526.2c-1.3,21.5,15,39.9,36.5,41.2l501.9,30.2
	c21.5,1.3,39.9-15,41.2-36.5l19.3-320.9C893.1,218.8,876.8,200.3,855.3,199z"/>
<path class="st5" d="M889.9,272l1.9-31.8c1.3-21.4-15-39.9-36.5-41.2l-501.9-30.2c-21.5-1.3-39.9,15.1-41.2,36.5l-1.9,31.8
	L889.9,272z"/>
<g>
	<path class="st6" d="M368,212.2c-0.4,5.8-5.3,10.2-11.1,9.8c-5.8-0.4-10.2-5.3-9.8-11.1s5.3-10.2,11.1-9.8
		C363.9,201.5,368.3,206.4,368,212.2z"/>
	<path class="st7" d="M418.3,215.2c-0.4,5.8-5.3,10.2-11.1,9.8s-10.2-5.3-9.8-11.1s5.3-10.2,11.1-9.8
		C414.3,204.5,418.6,209.5,418.3,215.2z"/>
	<path class="st8" d="M470.5,218.4c-0.4,5.8-5.3,10.2-11.1,9.8s-10.2-5.3-9.8-11.1s5.3-10.2,11.1-9.8
		C466.4,207.6,470.8,212.6,470.5,218.4z"/>
</g>
<path class="st0" d="M366.2,664.7H259.4l16.4-39.6v0l6.6-16l1.8-4.4l3-7.1l0.6-1.5l6.6-16l1.2-2.9l11.6-28.3c2.1-5.1,9.3-5.1,11.4,0
	l11.6,28.3l1.2,2.9l6.6,16l0.6,1.5l3,7.1l1.8,4.4l6.6,16v0L366.2,664.7z"/>
<polygon class="st9" points="266.4,647.7 259.4,664.7 366.2,664.7 359.2,647.7 "/>
<rect x="250.8" y="654.6" class="st1" width="122.4" height="17.3"/>
<rect x="346.8" y="654.6" class="st2" width="26.5" height="17.3"/>
<path class="st9" d="M362,654.6h-15.1l-12.1-29.5v0l-6.6-16l-1.8-4.4l-3-7.1l-0.6-1.5l-6.6-16l-1.2-2.9l-9.8-23.8l1.8-4.5
	c2.1-5.1,9.3-5.1,11.4,0l11.6,28.3l1.2,2.9l6.6,16l0.6,1.5l3,7.1l1.8,4.4l6.6,16v0L362,654.6z"/>
<polygon class="st10" points="338,596.1 287.6,596.1 294.2,580.1 331.4,580.1 "/>
<polygon class="st10" points="349.9,625.1 349.9,625.1 275.7,625.1 275.7,625.1 282.3,609.1 343.3,609.1 "/>
<polygon class="st11" points="338,596.1 322.8,596.1 316.2,580.1 331.4,580.1 "/>
<polygon class="st11" points="349.9,625.1 349.9,625.1 334.8,625.1 334.8,625.1 328.2,609.1 343.3,609.1 "/>
<g>
	<path class="st10" d="M420.7,482.6l1.7-27.2l-73.4-4.7c-9.3-0.6-16.1-3.1-20.4-7.6c-4.4-4.5-6.3-10.3-5.9-17.5
		c0.1-1.9,0.6-3.7,1.4-5.6c0.8-1.9,2-3.8,3.5-5.8c1.5-2,3-3.9,4.6-5.8c1.6-1.9,3.5-4.1,5.9-6.8l84.1-98.7c5.5-6.5,10-11.2,13.5-14
		c3.5-2.9,7.5-4.1,12.1-3.9c14.8,0.9,21.7,9.9,20.6,26.9L461.1,425l6.3,0.4c7.5,0.5,13.5,1.9,17.9,4.2s6.4,7,5.9,13.9
		c-0.4,5.6-2.5,9.6-6.3,12c-3.9,2.4-9.5,3.3-16.9,2.8l-8.9-0.6l-1.7,27.2c-0.5,7.5-2.5,13-6,16.4c-3.5,3.4-8.1,5-13.6,4.6
		c-5.5-0.4-9.8-2.5-12.9-6.5S420.3,489.9,420.7,482.6z M361.7,418.7l62.9,4l5.4-84.9L361.7,418.7z"/>
	<path class="st10" d="M663.1,411.2c-1,16-2.9,29.7-5.5,41s-7,21.6-12.8,30.6c-7.4,11.1-16.5,19.4-27.4,25
		c-10.9,5.6-22.8,7.9-35.7,7.1c-14.8-0.9-27.8-6-39-15.1c-11.2-9.1-19.3-21.3-24.3-36.5c-2.5-8.3-4.2-17.4-4.9-27.2
		c-0.8-9.9-0.8-20.5-0.1-31.9c0.9-14.7,2.6-27.9,4.9-39.6s5.4-21.7,9.2-29.9c6.6-13.7,15.7-23.8,27.1-30.5c11.4-6.7,24.8-9.5,40-8.5
		c10,0.6,19,2.9,27,6.6c8,3.8,14.9,9,20.7,15.7c5.8,6.7,10.5,14.8,14.2,24.3C662.7,358.7,664.9,381.7,663.1,411.2z M623.2,405.7
		c1.1-17.8,1-32.5-0.4-44c-1.4-11.5-4.5-20.3-9.2-26.4c-4.7-6.1-11.5-9.5-20.5-10c-12.9-0.8-22.2,5.1-28.1,17.7
		c-5.8,12.6-9.6,32.5-11.3,59.5c-1.2,18.3-1,33.4,0.3,45.2c1.4,11.8,4.4,20.9,9.1,27.2c4.7,6.3,11.4,9.8,20,10.3
		c9,0.6,16.2-2.1,21.7-8c5.5-5.9,9.6-14.6,12.4-26.1C620,439.6,622,424.5,623.2,405.7z"/>
	<path class="st10" d="M776.5,505.3l1.7-27.2l-73.4-4.7c-9.3-0.6-16.1-3.1-20.4-7.6c-4.4-4.5-6.3-10.3-5.8-17.5
		c0.1-1.9,0.6-3.7,1.4-5.6c0.8-1.9,2-3.8,3.5-5.8c1.5-2,3-3.9,4.6-5.8c1.6-1.9,3.5-4.1,5.9-6.8l84.1-98.7c5.5-6.5,10-11.2,13.5-14
		c3.5-2.9,7.5-4.1,12.1-3.9c14.8,0.9,21.7,9.9,20.6,26.9l-7.2,113.1l6.3,0.4c7.5,0.5,13.5,1.9,17.9,4.2s6.4,7,5.9,13.9
		c-0.4,5.6-2.5,9.6-6.3,12c-3.9,2.4-9.5,3.3-16.9,2.8l-8.9-0.6l-1.7,27.2c-0.5,7.5-2.5,13-6,16.4s-8.1,5-13.7,4.6
		c-5.5-0.3-9.8-2.5-12.9-6.5C777.4,518.2,776.1,512.6,776.5,505.3z M717.5,441.4l62.9,4l5.4-84.9L717.5,441.4z"/>
</g>
</svg>
