<?xml version="1.0" encoding="utf-8"?>
<!-- Generator: Adobe Illustrator 25.2.3, SVG Export Plug-In . SVG Version: 6.00 Build 0)  -->
<svg version="1.1" xmlns="http://www.w3.org/2000/svg" xmlns:xlink="http://www.w3.org/1999/xlink" x="0px" y="0px"
	 viewBox="0 0 1200 800" style="enable-background:new 0 0 1200 800;" xml:space="preserve">
<style type="text/css">
	.st0{fill:#EFF2F9;}
	.st1{fill:#FDC030;}
	.st2{fill:#68C3D8;}
	.st3{filter:url(#Adobe_OpacityMaskFilter);}
	.st4{filter:url(#Adobe_OpacityMaskFilter_1_);}
	.st5{mask:url(#SVGID_1_);fill:url(#SVGID_2_);}
	.st6{fill:#00A0DC;}
	.st7{fill:#0F4C81;}
	.st8{opacity:0.2;}
	.st9{fill:#FFFFFF;}
	.st10{fill:#FEFEFE;}
	.st11{fill:#FDFDFE;}
	.st12{fill:#FCFDFD;}
	.st13{fill:#FBFCFC;}
	.st14{fill:#FAFBFC;}
	.st15{fill:#F9FAFB;}
	.st16{fill:#F8F9FB;}
	.st17{fill:#F7F8FA;}
	.st18{fill:#F6F8F9;}
	.st19{fill:#F5F7F9;}
	.st20{fill:#F4F6F8;}
	.st21{fill:#F3F5F7;}
	.st22{fill:#F2F4F7;}
	.st23{fill:#F1F4F6;}
	.st24{fill:#F0F3F6;}
	.st25{fill:#EFF2F5;}
	.st26{fill:#EEF1F4;}
	.st27{fill:#EDF0F4;}
	.st28{fill:#ECF0F3;}
	.st29{fill:#EBEFF2;}
	.st30{fill:#EAEEF2;}
	.st31{fill:#E9EDF1;}
	.st32{fill:#E8ECF1;}
	.st33{fill:#E7EBF0;}
	.st34{fill:#E6EBEF;}
	.st35{fill:#E5EAEF;}
	.st36{fill:#E4E9EE;}
	.st37{fill:#E3E8ED;}
	.st38{fill:#E2E7ED;}
	.st39{fill:#E1E7EC;}
	.st40{fill:#E0E6EC;}
	.st41{fill:#DFE5EB;}
	.st42{fill:#DEE4EA;}
	.st43{fill:#DDE3EA;}
	.st44{fill:#DCE3E9;}
	.st45{fill:#DBE2E8;}
	.st46{fill:#DAE1E8;}
	.st47{fill:#D9E0E7;}
	.st48{fill:#D8DFE7;}
	.st49{fill:#D7DEE6;}
	.st50{fill:#D6DEE5;}
	.st51{fill:#D5DDE5;}
	.st52{fill:#D4DCE4;}
	.st53{fill:#D3DBE3;}
	.st54{fill:#D2DAE3;}
	.st55{fill:#D1DAE2;}
	.st56{fill:#D0D9E2;}
	.st57{fill:#CFD8E1;}
	.st58{fill:#CED7E0;}
	.st59{fill:#CDD6E0;}
	.st60{fill:#CCD6DF;}
	.st61{fill:#CBD5DE;}
	.st62{fill:#CAD4DE;}
	.st63{fill:#CAD3DD;}
	.st64{fill:#C9D2DD;}
	.st65{fill:#C8D1DC;}
	.st66{fill:#C7D1DB;}
	.st67{fill:#C6D0DB;}
	.st68{fill:#C5CFDA;}
	.st69{fill:#C4CED9;}
	.st70{fill:#C3CDD9;}
	.st71{fill:#C2CDD8;}
	.st72{fill:#C1CCD8;}
	.st73{fill:#C0CBD7;}
	.st74{fill:#BFCAD6;}
	.st75{fill:#BEC9D6;}
	.st76{fill:#BDC9D5;}
	.st77{fill:#BCC8D4;}
	.st78{fill:#BBC7D4;}
	.st79{fill:#BAC6D3;}
	.st80{fill:#B9C5D3;}
	.st81{fill:#B8C4D2;}
	.st82{fill:#B7C4D1;}
	.st83{fill:#B6C3D1;}
	.st84{fill:#B5C2D0;}
	.st85{fill:#B4C1CF;}
	.st86{fill:#B3C0CF;}
	.st87{fill:#B2C0CE;}
	.st88{fill:#B1BFCE;}
	.st89{fill:#B0BECD;}
	.st90{fill:#AFBDCC;}
	.st91{fill:#AEBCCC;}
	.st92{fill:#ADBCCB;}
	.st93{fill:#ACBBCA;}
	.st94{fill:#ABBACA;}
	.st95{fill:#AAB9C9;}
	.st96{fill:#A9B8C9;}
	.st97{fill:#A8B7C8;}
	.st98{fill:#A7B7C7;}
	.st99{fill:#A6B6C7;}
	.st100{fill:#A5B5C6;}
	.st101{fill:#A4B4C5;}
	.st102{fill:#A3B3C5;}
	.st103{fill:#A2B3C4;}
	.st104{fill:#A1B2C4;}
	.st105{fill:#A0B1C3;}
	.st106{fill:#9FB0C2;}
	.st107{fill:#9EAFC2;}
	.st108{fill:#9DAFC1;}
	.st109{fill:#9CAEC0;}
	.st110{fill:#9BADC0;}
	.st111{fill:#9AACBF;}
	.st112{fill:#99ABBF;}
	.st113{fill:#98AABE;}
	.st114{fill:#97AABD;}
	.st115{fill:#96A9BD;}
	.st116{fill:#95A8BC;}
	.st117{fill:#D0DAE9;}
	.st118{fill:#CCD4D6;}
	.st119{fill:#B6BDBF;}
	.st120{fill:#596273;}
	.st121{fill:#F0EFF5;}
	.st122{fill:#E7CA80;}
	.st123{fill:#A2CE6F;}
	.st124{opacity:0.4;}
	.st125{fill:#FDFDFD;}
	.st126{fill:#FCFCFD;}
	.st127{fill:#F8F9FA;}
	.st128{fill:#F5F7F8;}
	.st129{fill:#F1F3F6;}
	.st130{fill:#F0F3F5;}
	.st131{fill:#EDF0F3;}
	.st132{fill:#ECEFF3;}
	.st133{fill:#E8ECF0;}
	.st134{fill:#E5EAEE;}
	.st135{fill:#E1E6EC;}
	.st136{fill:#E0E6EB;}
	.st137{fill:#DDE3E9;}
	.st138{fill:#DCE2E9;}
	.st139{fill:#D8DFE6;}
	.st140{fill:#D5DDE4;}
	.st141{fill:#D1D9E2;}
	.st142{fill:#D0D9E1;}
	.st143{fill:#CDD6DF;}
	.st144{fill:#CCD5DF;}
	.st145{fill:#C9D2DC;}
	.st146{fill:#C1CCD7;}
	.st147{fill:#BDC8D5;}
	.st148{fill:#B9C5D2;}
	.st149{fill:#B1BFCD;}
	.st150{fill:#ADBBCB;}
	.st151{fill:#A9B8C8;}
	.st152{fill:#A1B2C3;}
	.st153{fill:#9DAEC1;}
	.st154{fill:#99ABBE;}
	.st155{opacity:0.15;}
	.st156{opacity:0.1;}
	.st157{fill:#FBFBFC;}
	.st158{fill:#FAFAFB;}
	.st159{fill:#F7F8F9;}
	.st160{fill:#F6F7F8;}
	.st161{fill:#F5F6F8;}
	.st162{fill:#F4F5F7;}
	.st163{fill:#F3F4F6;}
	.st164{fill:#F2F3F6;}
	.st165{fill:#F1F2F5;}
	.st166{fill:#F0F2F4;}
	.st167{fill:#EFF1F4;}
	.st168{fill:#EEF0F3;}
	.st169{fill:#EDEFF2;}
	.st170{fill:#EDEEF2;}
	.st171{fill:#ECEDF1;}
	.st172{fill:#EBECF0;}
	.st173{fill:#EAEBEF;}
	.st174{fill:#E9EAEF;}
	.st175{fill:#E8EAEE;}
	.st176{fill:#E7E9ED;}
	.st177{fill:#E6E8ED;}
	.st178{fill:#E5E7EC;}
	.st179{fill:#E4E6EB;}
	.st180{fill:#E3E5EB;}
	.st181{fill:#E2E4EA;}
	.st182{fill:#E1E3E9;}
	.st183{fill:#E0E2E8;}
	.st184{fill:#DFE2E8;}
	.st185{fill:#DEE1E7;}
	.st186{fill:#DDE0E6;}
	.st187{fill:#DCDFE6;}
	.st188{fill:#DBDEE5;}
	.st189{fill:#DAEDF4;}
	.st190{fill:#B6B8BA;}
	.st191{fill:#231F20;}
	.st192{fill:#4E98FF;}
	.st193{fill:#F8F8F8;}
	.st194{fill:none;stroke:#231F20;stroke-width:0.0888;stroke-miterlimit:10;}
	.st195{fill:#B2BACE;}
	.st196{fill:none;stroke:#B2BACE;stroke-width:0.0888;stroke-miterlimit:10;}
	.st197{fill:#536ED5;}
	.st198{fill:none;stroke:#FFFFFF;stroke-width:0.0888;stroke-miterlimit:10;}
	.st199{opacity:0.3;}
	.st200{fill:#B4D0DD;}
	.st201{fill:#FCBE14;}
	.st202{fill:#9EC300;}
	.st203{fill:#E4E7EB;}
	.st204{fill:#F2F2F2;}
	.st205{fill:#D8E0E3;}
	.st206{fill:none;stroke:#D8E0E3;stroke-width:0.159;}
	.st207{fill:#FDCD40;}
	.st208{fill:none;stroke:#FFFFFF;stroke-width:0.159;}
	.st209{fill:#FF5931;}
	.st210{fill:none;stroke:#D7E4EC;stroke-width:0.3284;}
	.st211{fill:#D7E4EC;}
	.st212{fill:none;stroke:#B5C1C8;stroke-width:0.3284;}
	.st213{fill:url(#SVGID_3_);}
	.st214{fill:#59C6E2;}
	.st215{fill:#88DAEF;}
	.st216{fill:#F6F7FB;}
	.st217{fill:#959B9D;}
	.st218{fill:#7EC7EE;}
	.st219{fill:#484F59;}
	.st220{fill:#194866;}
	.st221{fill:#808080;}
	.st222{fill:#AFABA2;}
	.st223{fill:#3BB5D4;}
	.st224{fill:#F0F9FB;}
	.st225{fill:#FCFCFC;}
	.st226{fill:#FBFBFB;}
	.st227{fill:#FAFAFA;}
	.st228{fill:#F9F9F9;}
	.st229{fill:#F7F7F8;}
	.st230{fill:#F6F6F7;}
	.st231{fill:#F5F6F6;}
	.st232{fill:#F4F5F5;}
	.st233{fill:#F3F4F4;}
	.st234{fill:#F2F3F3;}
	.st235{fill:#F1F2F2;}
	.st236{fill:#F0F1F1;}
	.st237{fill:#EFF0F0;}
	.st238{fill:#EEEFEF;}
	.st239{fill:#EDEEEE;}
	.st240{fill:#ECEDED;}
	.st241{fill:#EBECEC;}
	.st242{fill:#EAEBEC;}
	.st243{fill:#E9EAEB;}
	.st244{fill:#E8E9EA;}
	.st245{fill:#E7E8E9;}
	.st246{fill:#E6E7E8;}
	.st247{fill:#E5E6E7;}
	.st248{fill:#E5E6E6;}
	.st249{fill:#E4E5E5;}
	.st250{fill:#E3E4E4;}
	.st251{fill:#E2E3E3;}
	.st252{fill:#E1E2E2;}
	.st253{fill:#E0E1E1;}
	.st254{fill:#DFE0E0;}
	.st255{fill:#DEDFE0;}
	.st256{fill:#DDDEDF;}
	.st257{fill:#DCDDDE;}
	.st258{fill:#DBDCDD;}
	.st259{fill:#DADBDC;}
	.st260{fill:#D9DADB;}
	.st261{fill:#D8D9DA;}
	.st262{fill:#D7D8D9;}
	.st263{fill:#D6D7D8;}
	.st264{fill:#D5D6D7;}
	.st265{fill:#D4D5D6;}
	.st266{fill:#D3D5D5;}
	.st267{fill:#D2D4D4;}
	.st268{fill:#D1D3D4;}
	.st269{fill:#D0D2D3;}
	.st270{fill:#CFD1D2;}
	.st271{fill:#CED0D1;}
	.st272{fill:#CDCFD0;}
	.st273{fill:#CCCECF;}
	.st274{fill:#CBCDCE;}
	.st275{enable-background:new    ;}
	.st276{clip-path:url(#SVGID_6_);enable-background:new    ;}
	.st277{fill:url(#SVGID_7_);}
	.st278{fill:url(#SVGID_8_);}
	.st279{clip-path:url(#SVGID_11_);enable-background:new    ;}
	.st280{fill:url(#SVGID_12_);}
	.st281{fill:url(#SVGID_13_);}
	.st282{fill:url(#SVGID_14_);}
	.st283{fill:url(#SVGID_15_);}
	.st284{fill:url(#SVGID_16_);}
	.st285{fill:url(#SVGID_17_);}
	.st286{fill:url(#SVGID_18_);}
	.st287{fill:url(#SVGID_19_);}
	.st288{fill:url(#SVGID_20_);}
	.st289{fill:url(#SVGID_21_);}
	.st290{fill:url(#SVGID_22_);}
	.st291{fill:url(#SVGID_23_);}
	.st292{fill:url(#SVGID_24_);}
	.st293{fill:url(#SVGID_25_);}
	.st294{fill:url(#SVGID_26_);}
	.st295{fill:url(#SVGID_27_);}
	.st296{fill:url(#SVGID_28_);}
	.st297{fill:url(#SVGID_29_);}
	.st298{clip-path:url(#SVGID_32_);enable-background:new    ;}
	.st299{fill:url(#SVGID_33_);}
	.st300{fill:url(#SVGID_34_);}
	.st301{fill:url(#SVGID_35_);}
	.st302{fill:url(#SVGID_36_);}
	.st303{fill:url(#SVGID_37_);}
	.st304{fill:url(#SVGID_38_);}
	.st305{fill:url(#SVGID_39_);}
	.st306{fill:url(#SVGID_40_);}
	.st307{fill:url(#SVGID_41_);}
	.st308{fill:url(#SVGID_42_);}
	.st309{fill:url(#SVGID_43_);}
	.st310{fill:url(#SVGID_44_);}
	.st311{fill:url(#SVGID_45_);}
	.st312{fill:url(#SVGID_46_);}
	.st313{fill:url(#SVGID_47_);}
	.st314{fill:url(#SVGID_48_);}
	.st315{fill:url(#SVGID_49_);}
	.st316{fill:url(#SVGID_50_);}
	.st317{fill:url(#SVGID_51_);}
	.st318{fill:url(#SVGID_52_);}
	.st319{fill:url(#SVGID_53_);}
	.st320{fill:url(#SVGID_54_);}
	.st321{fill:url(#SVGID_55_);}
	.st322{clip-path:url(#SVGID_58_);enable-background:new    ;}
	.st323{fill:url(#SVGID_59_);}
	.st324{fill:url(#SVGID_60_);}
	.st325{fill:url(#SVGID_61_);}
	.st326{fill:url(#SVGID_62_);}
	.st327{fill:url(#SVGID_63_);}
	.st328{fill:url(#SVGID_64_);}
	.st329{fill:url(#SVGID_65_);}
	.st330{fill:url(#SVGID_66_);}
	.st331{fill:url(#SVGID_67_);}
	.st332{fill:url(#SVGID_68_);}
	.st333{fill:url(#SVGID_69_);}
	.st334{fill:url(#SVGID_70_);}
	.st335{fill:url(#SVGID_71_);}
	.st336{fill:url(#SVGID_72_);}
	.st337{fill:url(#SVGID_73_);}
	.st338{fill:url(#SVGID_74_);}
	.st339{fill:url(#SVGID_75_);}
	.st340{fill:url(#SVGID_76_);}
	.st341{fill:url(#SVGID_77_);}
	.st342{fill:url(#SVGID_78_);}
	.st343{fill:url(#SVGID_79_);}
	.st344{fill:url(#SVGID_80_);}
	.st345{fill:url(#SVGID_81_);}
	.st346{fill:url(#SVGID_82_);}
	.st347{fill:url(#SVGID_83_);}
	.st348{fill:url(#SVGID_84_);}
	.st349{fill:url(#SVGID_85_);}
	.st350{fill:url(#SVGID_86_);}
	.st351{fill:url(#SVGID_87_);}
	.st352{fill:url(#SVGID_88_);}
	.st353{fill:url(#SVGID_89_);}
	.st354{fill:url(#SVGID_90_);}
	.st355{fill:url(#SVGID_91_);}
	.st356{fill:url(#SVGID_92_);}
	.st357{fill:url(#SVGID_93_);}
	.st358{fill:url(#SVGID_94_);}
	.st359{fill:#E3F5F6;}
	.st360{fill:url(#SVGID_95_);}
	.st361{fill:#30363D;}
	.st362{fill:#8D8F92;}
	.st363{fill:#A1A3A6;}
	.st364{fill:#282723;}
	.st365{fill:#ECEDEF;}
	.st366{fill:#F3D980;}
	.st367{fill:#163F59;}
	.st368{fill:#161711;}
	.st369{fill:#EFC967;}
	.st370{fill:#AFBEDD;}
	.st371{fill:#593446;}
	.st372{fill:#081832;}
	.st373{fill:#B4B4B4;}
	.st374{fill:#A2AAAD;}
	.st375{clip-path:url(#SVGID_97_);enable-background:new    ;}
	.st376{fill:#9DA3A6;}
	.st377{clip-path:url(#SVGID_99_);enable-background:new    ;}
	.st378{fill:#949A9C;}
	.st379{fill:#979FA1;}
	.st380{fill:#A0A8AB;}
	.st381{fill:#A5ADB0;}
	.st382{fill:#A9B2B5;}
	.st383{clip-path:url(#SVGID_101_);enable-background:new    ;}
	.st384{clip-path:url(#SVGID_103_);enable-background:new    ;}
	.st385{clip-path:url(#SVGID_105_);enable-background:new    ;}
	.st386{clip-path:url(#SVGID_107_);enable-background:new    ;}
	.st387{clip-path:url(#SVGID_109_);enable-background:new    ;}
	.st388{fill:#A9B0B3;}
	.st389{clip-path:url(#SVGID_111_);enable-background:new    ;}
	.st390{clip-path:url(#SVGID_113_);enable-background:new    ;}
	.st391{clip-path:url(#SVGID_115_);enable-background:new    ;}
	.st392{clip-path:url(#SVGID_117_);enable-background:new    ;}
	.st393{fill:#EEF8FF;}
	.st394{clip-path:url(#SVGID_119_);enable-background:new    ;}
	.st395{fill:#8E8E8E;}
	.st396{fill:#939393;}
	.st397{fill:#989898;}
	.st398{clip-path:url(#SVGID_121_);enable-background:new    ;}
	.st399{fill:#848484;}
	.st400{fill:#898989;}
	.st401{clip-path:url(#SVGID_123_);enable-background:new    ;}
	.st402{fill:#9D9D9D;}
	.st403{fill:url(#SVGID_124_);}
	.st404{fill:#ACACAC;}
	.st405{fill:url(#SVGID_125_);}
	.st406{fill:#D0EBFA;}
	.st407{fill:#2B232E;}
	.st408{fill:#FAD160;}
	.st409{fill:#282D33;}
	.st410{fill:none;stroke:#6D5CBA;stroke-width:0.1331;stroke-miterlimit:10;}
	.st411{fill:none;stroke:#FF866C;stroke-width:0.1331;stroke-miterlimit:10;}
	.st412{fill:none;stroke:#7EC795;stroke-width:0.1331;stroke-miterlimit:10;}
	.st413{fill:none;stroke:#F0F9FB;stroke-width:0.1331;stroke-miterlimit:10;}
	.st414{fill:none;stroke:#FAD160;stroke-width:0.1331;stroke-miterlimit:10;}
	.st415{fill:none;stroke:#7EC7EE;stroke-width:0.1331;stroke-miterlimit:10;}
	.st416{fill:#F7F7F7;}
	.st417{fill:#F5F5F6;}
	.st418{fill:#F4F4F5;}
	.st419{fill:#F3F3F4;}
	.st420{fill:#F2F2F3;}
	.st421{fill:#EAEBEB;}
	.st422{fill:#E9EAEA;}
	.st423{fill:#E4E5E6;}
	.st424{fill:#E3E4E5;}
	.st425{fill:#E2E3E4;}
	.st426{fill:#E1E2E3;}
	.st427{fill:#E0E1E2;}
	.st428{fill:#DFE0E1;}
	.st429{fill:#D3D4D5;}
	.st430{fill:#D2D3D4;}
	.st431{fill:#D1D2D3;}
	.st432{fill:#D0D1D2;}
	.st433{fill:#CFD0D1;}
	.st434{fill:#CECFD0;}
	.st435{fill:#CDCECF;}
	.st436{fill:#CCCDCE;}
	.st437{fill:#CBCCCE;}
	.st438{fill:#CACBCD;}
	.st439{fill:#C9CACC;}
	.st440{fill:#C8C9CB;}
	.st441{fill:#C7C8CA;}
	.st442{fill:#C6C7C9;}
	.st443{fill:#C5C6C8;}
	.st444{fill:#C4C5C7;}
	.st445{fill:#C3C4C6;}
	.st446{fill:#C2C4C5;}
	.st447{fill:#C1C3C4;}
	.st448{fill:#C0C2C3;}
	.st449{fill:#BFC1C2;}
	.st450{fill:#BEC0C1;}
	.st451{fill:#BDBFC1;}
	.st452{fill:#BCBEC0;}
	.st453{fill:#BBBDBF;}
	.st454{fill:#BABCBE;}
	.st455{fill:#B9BBBD;}
	.st456{fill:#B8BABC;}
	.st457{fill:#B7B9BB;}
	.st458{fill:#E3EDF2;}
	.st459{fill:none;}
	.st460{opacity:0.2;fill:#FFFFFF;}
	.st461{fill:#474F59;}
	.st462{clip-path:url(#SVGID_127_);enable-background:new    ;}
	.st463{fill:#E9EAEE;}
	.st464{fill:#7C7C7E;}
	.st465{fill:#572E25;}
	.st466{clip-path:url(#SVGID_129_);enable-background:new    ;}
	.st467{fill:#5D3227;}
	.st468{fill:#184461;}
	.st469{clip-path:url(#SVGID_131_);enable-background:new    ;}
	.st470{fill:#0D2535;}
	.st471{fill:#0D2737;}
	.st472{fill:#E1C49B;}
	.st473{fill:#3C463B;}
	.st474{fill:#323B31;}
	.st475{fill:#B5C1C8;}
	.st476{fill:#869AA5;}
	.st477{clip-path:url(#SVGID_134_);enable-background:new    ;}
	.st478{fill:url(#SVGID_135_);}
	.st479{fill:url(#SVGID_136_);}
	.st480{clip-path:url(#SVGID_139_);enable-background:new    ;}
	.st481{fill:url(#SVGID_140_);}
	.st482{fill:url(#SVGID_141_);}
	.st483{fill:url(#SVGID_142_);}
	.st484{fill:url(#SVGID_143_);}
	.st485{fill:url(#SVGID_144_);}
	.st486{fill:url(#SVGID_145_);}
	.st487{fill:url(#SVGID_146_);}
	.st488{fill:url(#SVGID_147_);}
	.st489{fill:url(#SVGID_148_);}
	.st490{fill:url(#SVGID_149_);}
	.st491{fill:url(#SVGID_150_);}
	.st492{fill:url(#SVGID_151_);}
	.st493{fill:url(#SVGID_152_);}
	.st494{fill:url(#SVGID_153_);}
	.st495{fill:url(#SVGID_154_);}
	.st496{fill:url(#SVGID_155_);}
	.st497{fill:url(#SVGID_156_);}
	.st498{fill:url(#SVGID_157_);}
	.st499{clip-path:url(#SVGID_160_);enable-background:new    ;}
	.st500{fill:url(#SVGID_161_);}
	.st501{fill:url(#SVGID_162_);}
	.st502{fill:url(#SVGID_163_);}
	.st503{fill:url(#SVGID_164_);}
	.st504{fill:url(#SVGID_165_);}
	.st505{fill:url(#SVGID_166_);}
	.st506{fill:url(#SVGID_167_);}
	.st507{fill:url(#SVGID_168_);}
	.st508{fill:url(#SVGID_169_);}
	.st509{fill:url(#SVGID_170_);}
	.st510{fill:url(#SVGID_171_);}
	.st511{fill:url(#SVGID_172_);}
	.st512{fill:url(#SVGID_173_);}
	.st513{fill:url(#SVGID_174_);}
	.st514{fill:url(#SVGID_175_);}
	.st515{fill:url(#SVGID_176_);}
	.st516{fill:url(#SVGID_177_);}
	.st517{fill:url(#SVGID_178_);}
	.st518{fill:url(#SVGID_179_);}
	.st519{fill:url(#SVGID_180_);}
	.st520{fill:url(#SVGID_181_);}
	.st521{fill:url(#SVGID_182_);}
	.st522{fill:url(#SVGID_183_);}
	.st523{clip-path:url(#SVGID_186_);enable-background:new    ;}
	.st524{fill:url(#SVGID_187_);}
	.st525{fill:url(#SVGID_188_);}
	.st526{fill:url(#SVGID_189_);}
	.st527{fill:url(#SVGID_190_);}
	.st528{fill:url(#SVGID_191_);}
	.st529{fill:url(#SVGID_192_);}
	.st530{fill:url(#SVGID_193_);}
	.st531{fill:url(#SVGID_194_);}
	.st532{fill:url(#SVGID_195_);}
	.st533{fill:url(#SVGID_196_);}
	.st534{fill:url(#SVGID_197_);}
	.st535{fill:url(#SVGID_198_);}
	.st536{fill:url(#SVGID_199_);}
	.st537{fill:url(#SVGID_200_);}
	.st538{fill:url(#SVGID_201_);}
	.st539{fill:url(#SVGID_202_);}
	.st540{fill:url(#SVGID_203_);}
	.st541{fill:url(#SVGID_204_);}
	.st542{fill:url(#SVGID_205_);}
	.st543{fill:url(#SVGID_206_);}
	.st544{fill:url(#SVGID_207_);}
	.st545{fill:url(#SVGID_208_);}
	.st546{fill:url(#SVGID_209_);}
	.st547{fill:url(#SVGID_210_);}
	.st548{fill:url(#SVGID_211_);}
	.st549{fill:url(#SVGID_212_);}
	.st550{fill:url(#SVGID_213_);}
	.st551{fill:url(#SVGID_214_);}
	.st552{fill:url(#SVGID_215_);}
	.st553{fill:url(#SVGID_216_);}
	.st554{fill:url(#SVGID_217_);}
	.st555{fill:url(#SVGID_218_);}
	.st556{fill:url(#SVGID_219_);}
	.st557{fill:url(#SVGID_220_);}
	.st558{fill:url(#SVGID_221_);}
	.st559{fill:url(#SVGID_222_);}
	.st560{clip-path:url(#SVGID_225_);enable-background:new    ;}
	.st561{fill:url(#SVGID_226_);}
	.st562{fill:url(#SVGID_227_);}
	.st563{clip-path:url(#SVGID_230_);enable-background:new    ;}
	.st564{fill:url(#SVGID_231_);}
	.st565{fill:url(#SVGID_232_);}
	.st566{fill:url(#SVGID_233_);}
	.st567{fill:url(#SVGID_234_);}
	.st568{fill:url(#SVGID_235_);}
	.st569{fill:url(#SVGID_236_);}
	.st570{fill:url(#SVGID_237_);}
	.st571{fill:url(#SVGID_238_);}
	.st572{fill:url(#SVGID_239_);}
	.st573{fill:url(#SVGID_240_);}
	.st574{fill:url(#SVGID_241_);}
	.st575{fill:url(#SVGID_242_);}
	.st576{fill:url(#SVGID_243_);}
	.st577{fill:url(#SVGID_244_);}
	.st578{fill:url(#SVGID_245_);}
	.st579{fill:url(#SVGID_246_);}
	.st580{fill:url(#SVGID_247_);}
	.st581{fill:url(#SVGID_248_);}
	.st582{clip-path:url(#SVGID_251_);enable-background:new    ;}
	.st583{fill:url(#SVGID_252_);}
	.st584{fill:url(#SVGID_253_);}
	.st585{fill:url(#SVGID_254_);}
	.st586{fill:url(#SVGID_255_);}
	.st587{fill:url(#SVGID_256_);}
	.st588{fill:url(#SVGID_257_);}
	.st589{fill:url(#SVGID_258_);}
	.st590{fill:url(#SVGID_259_);}
	.st591{fill:url(#SVGID_260_);}
	.st592{fill:url(#SVGID_261_);}
	.st593{fill:url(#SVGID_262_);}
	.st594{fill:url(#SVGID_263_);}
	.st595{fill:url(#SVGID_264_);}
	.st596{fill:url(#SVGID_265_);}
	.st597{fill:url(#SVGID_266_);}
	.st598{fill:url(#SVGID_267_);}
	.st599{fill:url(#SVGID_268_);}
	.st600{fill:url(#SVGID_269_);}
	.st601{fill:url(#SVGID_270_);}
	.st602{fill:url(#SVGID_271_);}
	.st603{fill:url(#SVGID_272_);}
	.st604{fill:url(#SVGID_273_);}
	.st605{fill:url(#SVGID_274_);}
	.st606{clip-path:url(#SVGID_277_);enable-background:new    ;}
	.st607{fill:url(#SVGID_278_);}
	.st608{fill:url(#SVGID_279_);}
	.st609{fill:url(#SVGID_280_);}
	.st610{fill:url(#SVGID_281_);}
	.st611{fill:url(#SVGID_282_);}
	.st612{fill:url(#SVGID_283_);}
	.st613{fill:url(#SVGID_284_);}
	.st614{fill:url(#SVGID_285_);}
	.st615{fill:url(#SVGID_286_);}
	.st616{fill:url(#SVGID_287_);}
	.st617{fill:url(#SVGID_288_);}
	.st618{fill:url(#SVGID_289_);}
	.st619{fill:url(#SVGID_290_);}
	.st620{fill:url(#SVGID_291_);}
	.st621{fill:url(#SVGID_292_);}
	.st622{fill:url(#SVGID_293_);}
	.st623{fill:url(#SVGID_294_);}
	.st624{fill:url(#SVGID_295_);}
	.st625{fill:url(#SVGID_296_);}
	.st626{fill:url(#SVGID_297_);}
	.st627{fill:url(#SVGID_298_);}
	.st628{fill:url(#SVGID_299_);}
	.st629{fill:url(#SVGID_300_);}
	.st630{fill:url(#SVGID_301_);}
	.st631{fill:url(#SVGID_302_);}
	.st632{fill:url(#SVGID_303_);}
	.st633{fill:url(#SVGID_304_);}
	.st634{fill:url(#SVGID_305_);}
	.st635{fill:url(#SVGID_306_);}
	.st636{fill:url(#SVGID_307_);}
	.st637{fill:url(#SVGID_308_);}
	.st638{fill:url(#SVGID_309_);}
	.st639{fill:url(#SVGID_310_);}
	.st640{fill:url(#SVGID_311_);}
	.st641{fill:url(#SVGID_312_);}
	.st642{fill:url(#SVGID_313_);}
	.st643{clip-path:url(#SVGID_315_);enable-background:new    ;}
	.st644{clip-path:url(#SVGID_317_);enable-background:new    ;}
	.st645{clip-path:url(#SVGID_319_);enable-background:new    ;}
	.st646{clip-path:url(#SVGID_321_);enable-background:new    ;}
	.st647{clip-path:url(#SVGID_323_);enable-background:new    ;}
	.st648{clip-path:url(#SVGID_325_);enable-background:new    ;}
	.st649{clip-path:url(#SVGID_327_);enable-background:new    ;}
	.st650{clip-path:url(#SVGID_329_);enable-background:new    ;}
	.st651{clip-path:url(#SVGID_331_);enable-background:new    ;}
	.st652{clip-path:url(#SVGID_333_);enable-background:new    ;}
	.st653{clip-path:url(#SVGID_335_);enable-background:new    ;}
	.st654{clip-path:url(#SVGID_337_);enable-background:new    ;}
	.st655{clip-path:url(#SVGID_339_);enable-background:new    ;}
	.st656{clip-path:url(#SVGID_341_);enable-background:new    ;}
	.st657{fill:url(#SVGID_342_);}
	.st658{fill:#DBE4E9;}
	.st659{filter:url(#Adobe_OpacityMaskFilter_2_);}
	.st660{filter:url(#Adobe_OpacityMaskFilter_3_);}
	.st661{mask:url(#SVGID_343_);fill:url(#SVGID_344_);}
	.st662{fill:url(#SVGID_345_);}
	.st663{fill:url(#SVGID_346_);}
	.st664{fill:#373278;}
	.st665{opacity:0.1;fill:#FFFFFF;}
	.st666{fill:#F29706;}
	.st667{fill:url(#SVGID_347_);}
	.st668{fill:#F2A906;}
	.st669{fill:none;stroke:#FFFFFF;stroke-width:0.1331;stroke-miterlimit:10;}
	.st670{fill:#91B300;}
	.st671{filter:url(#Adobe_OpacityMaskFilter_4_);}
	.st672{filter:url(#Adobe_OpacityMaskFilter_5_);}
	.st673{mask:url(#SVGID_348_);fill:url(#SVGID_349_);}
	.st674{fill:url(#SVGID_350_);}
	.st675{fill:url(#SVGID_351_);}
	.st676{fill:url(#SVGID_352_);}
	.st677{filter:url(#Adobe_OpacityMaskFilter_6_);}
	.st678{filter:url(#Adobe_OpacityMaskFilter_7_);}
	.st679{mask:url(#SVGID_353_);fill:url(#SVGID_354_);}
	.st680{opacity:0.3;fill:url(#SVGID_355_);}
	.st681{fill:#2796FC;}
	.st682{fill:#58595B;}
	.st683{fill:url(#SVGID_356_);}
	.st684{fill:url(#SVGID_357_);}
	.st685{fill:#E6E7E7;}
	.st686{fill:#E7E8E8;}
	.st687{fill:#E8E8E9;}
	.st688{fill:#E9E9EA;}
	.st689{fill:#EAEAEB;}
	.st690{fill:#EBEBEC;}
	.st691{fill:#ECECED;}
	.st692{fill:#EDEDEE;}
	.st693{fill:#EEEEEF;}
	.st694{fill:#EFEFF0;}
	.st695{fill:#F6F7F7;}
	.st696{fill:#F8F8F9;}
	.st697{filter:url(#Adobe_OpacityMaskFilter_8_);}
	.st698{filter:url(#Adobe_OpacityMaskFilter_9_);}
	.st699{mask:url(#SVGID_358_);fill:url(#SVGID_359_);}
	.st700{fill:url(#SVGID_360_);}
	.st701{filter:url(#Adobe_OpacityMaskFilter_10_);}
	.st702{mask:url(#SVGID_361_);fill:url(#SVGID_362_);}
	.st703{filter:url(#Adobe_OpacityMaskFilter_11_);}
	.st704{mask:url(#SVGID_363_);fill:url(#SVGID_364_);}
	.st705{filter:url(#Adobe_OpacityMaskFilter_12_);}
	.st706{filter:url(#Adobe_OpacityMaskFilter_13_);}
	.st707{mask:url(#SVGID_365_);fill:url(#SVGID_366_);}
	.st708{fill:url(#SVGID_367_);}
	.st709{fill:none;stroke:#A4B5BD;stroke-width:0.2081;}
	.st710{fill:none;stroke:#FFFFFF;stroke-width:0.2081;}
	.st711{fill:none;stroke:#B4D0DD;stroke-width:0.2819;stroke-miterlimit:10;}
	.st712{fill:#CCD4D7;}
	.st713{fill:#BBCFE1;}
	.st714{fill:#DAD9C5;}
	.st715{fill:#C8C7B5;}
	.st716{fill:#C3D0E0;}
	.st717{fill:#ECECEC;}
	.st718{fill:#7DCCCF;}
	.st719{fill:#3BB5D5;}
	.st720{fill:#EBECED;}
	.st721{opacity:0.5;}
	.st722{fill:#00EBFF;}
	.st723{clip-path:url(#SVGID_369_);}
	.st724{fill:#BAB4FF;}
	.st725{fill:#FF3B84;}
	.st726{clip-path:url(#SVGID_371_);fill:#D7E4EC;}
	.st727{clip-path:url(#SVGID_371_);fill:#0F4C81;}
	.st728{clip-path:url(#SVGID_373_);fill:#FFFFFF;}
	.st729{fill:#00B0FF;}
	.st730{clip-path:url(#SVGID_375_);}
	.st731{clip-path:url(#SVGID_377_);fill:#D7E4EC;}
	.st732{clip-path:url(#SVGID_379_);}
	.st733{clip-path:url(#SVGID_381_);fill:#D7E4EC;}
	.st734{clip-path:url(#SVGID_383_);}
	.st735{fill:#CCCDCF;}
	.st736{clip-path:url(#SVGID_387_);fill:#D7E4EC;}
	.st737{clip-path:url(#SVGID_387_);fill:#0F4C81;}
	.st738{fill:#D8E7EF;}
	.st739{fill:#F3AD22;}
	.st740{clip-path:url(#SVGID_389_);fill:#0F4C81;}
	.st741{clip-path:url(#SVGID_391_);fill:#D7E4EC;}
	.st742{clip-path:url(#SVGID_391_);fill:#0F4C81;}
	.st743{clip-path:url(#SVGID_393_);fill:#0F4C81;}
	.st744{clip-path:url(#SVGID_395_);fill:#D7E4EC;}
	.st745{clip-path:url(#SVGID_397_);fill:#0F4C81;}
	.st746{clip-path:url(#SVGID_399_);fill:#0F4C81;}
	.st747{clip-path:url(#SVGID_401_);fill:#D7E4EC;}
	.st748{clip-path:url(#SVGID_405_);fill:#0F4C81;}
	.st749{clip-path:url(#SVGID_407_);fill:#0F4C81;}
	.st750{clip-path:url(#SVGID_409_);fill:#D7E4EC;}
	.st751{opacity:0.38;}
	.st752{opacity:0.4043;}
	.st753{opacity:0.4286;}
	.st754{opacity:0.4529;}
	.st755{opacity:0.4771;}
	.st756{opacity:0.5014;}
	.st757{opacity:0.5257;}
	.st758{opacity:0.55;}
	.st759{opacity:0.5743;}
	.st760{opacity:0.5986;}
	.st761{opacity:0.6229;}
	.st762{opacity:0.6471;}
	.st763{opacity:0.6714;}
	.st764{opacity:0.6957;}
	.st765{opacity:0.72;}
	.st766{opacity:0.7443;}
	.st767{opacity:0.7686;}
	.st768{opacity:0.7929;}
	.st769{opacity:0.8171;}
	.st770{opacity:0.8414;}
	.st771{opacity:0.8657;}
	.st772{opacity:0.89;}
	.st773{clip-path:url(#SVGID_413_);enable-background:new    ;}
	.st774{clip-path:url(#SVGID_415_);enable-background:new    ;}
	.st775{clip-path:url(#SVGID_417_);enable-background:new    ;}
	.st776{fill:#EDEDED;}
	.st777{clip-path:url(#SVGID_419_);}
	.st778{clip-path:url(#SVGID_423_);fill:#D7E4EC;}
	.st779{clip-path:url(#SVGID_423_);fill:#0F4C81;}
	.st780{clip-path:url(#SVGID_425_);fill:#0F4C81;}
	.st781{clip-path:url(#SVGID_427_);fill:#D7E4EC;}
	.st782{clip-path:url(#SVGID_427_);fill:#0F4C81;}
	.st783{clip-path:url(#SVGID_429_);fill:#0F4C81;}
	.st784{clip-path:url(#SVGID_431_);fill:#D7E4EC;}
	.st785{clip-path:url(#SVGID_433_);fill:#0F4C81;}
	.st786{clip-path:url(#SVGID_435_);fill:#0F4C81;}
	.st787{clip-path:url(#SVGID_437_);fill:#D7E4EC;}
	.st788{clip-path:url(#SVGID_441_);enable-background:new    ;}
	.st789{clip-path:url(#SVGID_443_);enable-background:new    ;}
	.st790{clip-path:url(#SVGID_445_);enable-background:new    ;}
	.st791{clip-path:url(#SVGID_447_);fill:#FFFFFF;}
	.st792{fill:#29AAE1;}
	.st793{fill:#F2F2F2;stroke:#B6BDBF;stroke-miterlimit:10;}
	.st794{fill:#B5DFEA;}
	.st795{opacity:0.55;fill:#90CEDD;}
	.st796{fill:#79C9E8;}
	.st797{fill:#D7F0F9;}
	.st798{fill:#0582C1;}
	.st799{fill:#FFBF4D;}
	.st800{fill:#00668E;}
	.st801{fill:#05556D;}
	.st802{fill:#F98D3D;}
	.st803{fill:#ED701B;}
	.st804{fill:#EFAA3A;}
	.st805{opacity:0.29;fill:#F98D2B;}
	.st806{fill:#49B4D6;}
	.st807{fill:#FF9F50;}
	.st808{fill:#F77E2D;}
	.st809{opacity:0.55;fill:url(#SVGID_448_);}
	.st810{opacity:0.55;fill:url(#SVGID_449_);}
	.st811{opacity:0.8;fill:#FDC030;}
	.st812{opacity:0.5;fill:#0F4C81;}
</style>
<g id="圖層_2">
</g>
<g id="圖層_1">
	<path class="st1" d="M765.71,583.51c82.4,38.55,142.2,142.65,233.84,92.11c44.96-22.76,88.04-69.61,106.89-103.48
		c19.48-35.74,22.57-130.55-33.6-159.47c-72.64-37.43-208.34-2.53-297.34,52.24c-45.16,25.68-66.03,55.82-64.07,74.44
		C712.89,559.7,722.84,563.43,765.71,583.51z"/>
	<path class="st2" d="M936.11,264.55c-35.82,2.88-59.78,32.03-100.46,25.53c-42.54-6.8-69.78-117.47-165.13-148.12
		c-74.05-23.79-229.83-17.01-299.63,139.59c-69.8,156.64-3.39,331.98,114.08,335.39c85.14,2.47,146.37-56.16,216.19-57.88
		c64.74-1.57,138.68,60.39,197.48,73.23c93.62,20.4,140.55-93.79,156.62-163.44C1070.59,402.44,1041.65,256.03,936.11,264.55z"/>
	<path class="st6" d="M218.99,495.43v-13.3h-13.98c-0.87-4.28-2.55-8.23-4.81-11.69l9.88-9.92l-9.43-9.4l-9.88,9.88
		c-3.46-2.29-7.44-3.95-11.69-4.81v-13.98h-13.3v13.98c-4.24,0.86-8.15,2.52-11.69,4.81l-9.92-9.88l-9.36,9.4l9.92,9.92
		c-2.37,3.46-4.02,7.44-4.89,11.69h-13.98v13.3h13.98c0.87,4.24,2.52,8.15,4.89,11.61l-9.92,9.92l9.36,9.43l9.92-9.92
		c3.53,2.29,7.44,4.02,11.69,4.88v13.98h13.3v-13.98c4.25-0.86,8.23-2.59,11.69-4.88l9.88,9.92l9.43-9.43l-9.88-9.85
		c2.25-3.53,3.94-7.44,4.81-11.69H218.99z M172.44,508.74c-11.01,0-19.95-8.98-19.95-19.99c0-11.01,8.94-19.92,19.95-19.92
		c11.05,0,19.95,8.9,19.95,19.92C192.39,499.75,183.48,508.74,172.44,508.74z"/>
	<path class="st6" d="M266.9,565.37l3.55-9.96l-10.46-3.73c0.49-3.44,0.28-6.84-0.49-10.03l10.04-4.79l-4.55-9.55l-10.03,4.76
		c-1.97-2.64-4.51-4.94-7.46-6.71l3.73-10.46l-9.96-3.55l-3.73,10.46c-3.41-0.49-6.77-0.29-10.03,0.49l-4.79-10.04l-9.51,4.54
		l4.78,10.07c-2.7,1.95-4.99,4.5-6.77,7.44l-10.46-3.73l-3.55,9.96l10.46,3.73c-0.48,3.41-0.29,6.77,0.56,9.99l-10.07,4.78
		l4.49,9.55l10.07-4.78c2.03,2.66,4.5,4.99,7.44,6.77l-3.73,10.46l9.96,3.55l3.73-10.46c3.41,0.49,6.85,0.25,10.05-0.54l4.75,10.06
		l9.57-4.54l-4.77-10c2.63-2.04,4.94-4.52,6.71-7.46L266.9,565.37z M228.51,562.91c-8.24-2.94-12.54-12.04-9.61-20.28
		c2.94-8.24,12-12.52,20.24-9.59c8.27,2.94,12.56,11.98,9.62,20.22C245.84,561.51,236.78,565.86,228.51,562.91z"/>
	<rect x="475.55" y="1.47" class="st796" width="3.65" height="266.65"/>
	<rect x="737.6" y="1.47" class="st796" width="3.65" height="307.61"/>
	<path class="st797" d="M855.35,199.02l-501.87-30.21c-21.45-1.29-39.88,15.05-41.17,36.5l-19.32,320.92
		c-1.29,21.45,15.05,39.88,36.5,41.17l501.87,30.21c21.45,1.29,39.88-15.05,41.17-36.5l19.32-320.92
		C893.14,218.75,876.8,200.31,855.35,199.02z"/>
	<path class="st798" d="M889.93,271.96l1.91-31.77c1.29-21.45-15.05-39.88-36.5-41.17l-501.87-30.21
		c-21.45-1.29-39.88,15.05-41.17,36.5l-1.91,31.77L889.93,271.96z"/>
	<g>
		<path class="st9" d="M367.96,212.2c-0.35,5.76-5.3,10.16-11.07,9.81c-5.76-0.35-10.16-5.3-9.81-11.06
			c0.35-5.76,5.3-10.16,11.06-9.81C363.92,201.48,368.31,206.44,367.96,212.2z"/>
		<path class="st223" d="M418.3,215.23c-0.35,5.76-5.3,10.16-11.06,9.81c-5.76-0.35-10.16-5.3-9.81-11.06
			c0.35-5.76,5.3-10.16,11.06-9.81C414.26,204.51,418.65,209.47,418.3,215.23z"/>
		<path class="st799" d="M470.49,218.37c-0.35,5.76-5.3,10.16-11.06,9.81c-5.76-0.35-10.16-5.3-9.81-11.06
			c0.35-5.76,5.3-10.16,11.06-9.81C466.44,207.65,470.83,212.61,470.49,218.37z"/>
	</g>
	<path class="st1" d="M366.24,664.73H259.36l16.35-39.63v-0.02l6.58-15.99l1.81-4.38l2.95-7.13l0.6-1.45l6.58-15.99l1.21-2.91
		l11.65-28.29c2.1-5.1,9.33-5.1,11.43,0l11.65,28.29l1.21,2.91l6.58,15.99l0.6,1.45l2.95,7.13l1.81,4.38l6.58,15.99v0.02
		L366.24,664.73z"/>
	<polygon class="st811" points="266.36,647.73 259.36,664.73 366.25,664.73 359.25,647.73 	"/>
	<rect x="250.82" y="654.57" class="st2" width="122.41" height="17.31"/>
	<rect x="346.78" y="654.57" class="st6" width="26.45" height="17.31"/>
	<path class="st811" d="M362.03,654.56h-15.12l-12.14-29.45v-0.02l-6.58-15.99l-1.81-4.38l-2.95-7.13l-0.6-1.45l-6.58-15.99
		l-1.21-2.91l-9.8-23.82l1.83-4.47c2.1-5.1,9.33-5.1,11.43,0l11.65,28.29l1.21,2.91l6.58,15.99l0.6,1.45l2.95,7.13l1.81,4.38
		l6.58,15.99v0.02L362.03,654.56z"/>
	<polygon class="st7" points="337.95,596.11 287.65,596.11 294.22,580.12 331.37,580.12 	"/>
	<polygon class="st7" points="349.89,625.07 349.89,625.1 275.7,625.1 275.7,625.07 282.28,609.08 343.31,609.08 	"/>
	<polygon class="st812" points="337.95,596.11 322.83,596.11 316.25,580.12 331.37,580.12 	"/>
	<polygon class="st812" points="349.89,625.07 349.89,625.1 334.77,625.1 334.77,625.07 328.2,609.08 343.31,609.08 	"/>
	<g>
		<path class="st7" d="M420.72,482.61l1.73-27.19l-73.39-4.68c-9.26-0.59-16.07-3.13-20.43-7.61c-4.36-4.48-6.31-10.33-5.85-17.55
			c0.12-1.85,0.58-3.71,1.38-5.56c0.8-1.86,1.95-3.79,3.45-5.8c1.5-2.01,3.04-3.94,4.63-5.8c1.59-1.85,3.54-4.13,5.87-6.82
			l84.09-98.71c5.5-6.5,9.98-11.18,13.45-14.04c3.46-2.86,7.48-4.15,12.06-3.85c14.81,0.94,21.68,9.9,20.6,26.85l-7.22,113.15
			l6.29,0.4c7.5,0.48,13.46,1.89,17.86,4.22s6.38,6.96,5.94,13.88c-0.36,5.65-2.48,9.65-6.34,12c-3.87,2.35-9.51,3.28-16.91,2.81
			l-8.92-0.57l-1.73,27.19c-0.48,7.51-2.49,12.98-6.04,16.42c-3.55,3.44-8.1,4.99-13.65,4.63c-5.46-0.35-9.75-2.51-12.87-6.47
			S420.26,489.92,420.72,482.61z M361.68,418.67l62.86,4.01l5.42-84.93L361.68,418.67z"/>
		<path class="st7" d="M663.07,411.17c-1.02,15.98-2.87,29.66-5.55,41.04c-2.68,11.38-6.95,21.57-12.81,30.59
			c-7.36,11.08-16.5,19.4-27.43,24.97c-10.92,5.56-22.82,7.94-35.68,7.12c-14.82-0.94-27.83-5.98-39.03-15.11
			c-11.21-9.13-19.32-21.29-24.31-36.48c-2.51-8.28-4.15-17.36-4.94-27.25c-0.79-9.88-0.82-20.53-0.09-31.93
			c0.94-14.71,2.56-27.92,4.87-39.61c2.31-11.69,5.39-21.67,9.25-29.94c6.64-13.67,15.68-23.83,27.12-30.49
			c11.43-6.66,24.75-9.5,39.96-8.53c10.04,0.64,19.05,2.85,27.02,6.64c7.98,3.79,14.86,9.02,20.65,15.7
			c5.79,6.68,10.53,14.79,14.23,24.32C662.69,358.74,664.94,381.74,663.07,411.17z M623.2,405.69c1.14-17.83,0.99-32.5-0.42-43.99
			c-1.42-11.49-4.48-20.3-9.18-26.42c-4.7-6.12-11.53-9.47-20.5-10.04c-12.86-0.82-22.22,5.09-28.07,17.73
			c-5.85,12.64-9.63,32.46-11.35,59.46c-1.17,18.32-1.05,33.4,0.35,45.23c1.4,11.83,4.44,20.91,9.13,27.22
			c4.68,6.32,11.36,9.75,20.04,10.3c8.97,0.57,16.18-2.1,21.65-8.01c5.46-5.91,9.59-14.6,12.38-26.07
			C620,439.64,622,424.5,623.2,405.69z"/>
		<path class="st7" d="M776.54,505.3l1.73-27.19l-73.39-4.68c-9.26-0.59-16.07-3.13-20.43-7.61c-4.36-4.48-6.31-10.33-5.85-17.55
			c0.12-1.85,0.58-3.71,1.38-5.56c0.8-1.86,1.95-3.79,3.45-5.8c1.5-2.01,3.04-3.94,4.63-5.8c1.59-1.85,3.54-4.13,5.87-6.82
			l84.09-98.71c5.5-6.5,9.98-11.18,13.45-14.04c3.46-2.86,7.48-4.15,12.06-3.85c14.81,0.94,21.68,9.9,20.6,26.85l-7.22,113.15
			l6.29,0.4c7.5,0.48,13.46,1.89,17.86,4.22s6.38,6.96,5.94,13.88c-0.36,5.65-2.48,9.65-6.34,12c-3.87,2.35-9.51,3.28-16.91,2.81
			l-8.92-0.57l-1.73,27.19c-0.48,7.51-2.49,12.98-6.04,16.42c-3.55,3.44-8.1,4.99-13.65,4.63c-5.46-0.35-9.75-2.51-12.87-6.47
			C777.41,518.25,776.08,512.61,776.54,505.3z M717.51,441.36l62.86,4.01l5.42-84.93L717.51,441.36z"/>
	</g>
</g>
</svg>
