<?xml version="1.0" encoding="utf-8"?>
<!-- Generator: Adobe Illustrator 25.2.3, SVG Export Plug-In . SVG Version: 6.00 Build 0)  -->
<svg version="1.1" id="圖層_1" xmlns="http://www.w3.org/2000/svg" xmlns:xlink="http://www.w3.org/1999/xlink" x="0px" y="0px"
	 viewBox="0 0 389 67" style="enable-background:new 0 0 389 67;" xml:space="preserve">
<style type="text/css">
	.st0{fill:#FFFFFF;}
</style>
<g>
	<path class="st0" d="M16.05,33.33c0-10.02,8.02-18.04,18.04-18.04c1.2,0,2.81,0,4.12,0.4V2.77h-6.12
		C14.85,2.85,1.22,16.49,1.22,33.33S15.25,63.8,32.49,63.72h6.23V50.57c-1.42,0.4-3.02,0.4-4.22,0.4
		C24.07,51.37,16.05,43.35,16.05,33.33z"/>
	<path class="st0" d="M40.73,2.77v13.97c6.78,2.79,11.56,9.18,11.56,16.76s-4.78,13.97-11.56,16.76v13.97h14.1V30.31l22.16,30.33
		V33.1L55.07,2.77H40.73z"/>
	<path class="st0" d="M94.8,2.77H80.02v60.95h14.1v-34l15.53,20.4H96.64v13.6h31.73V50.09L94.8,2.77z"/>
	<path class="st0" d="M18.35,33.08c0,8.41,7.21,15.62,15.62,15.62c8.81,0,15.62-6.81,15.62-15.62c0-8.41-7.21-15.62-15.62-15.62
		C25.56,17.86,18.35,24.67,18.35,33.08z M33.96,20.26c2.8,0,5.21,0.8,7.21,2.4c-0.8,0-2.8,0.4-4,1.2c-0.4,0.4-1.2,2-1.6,2.4
		c-0.4,0.4-1.2,0.8-1.6,0.8s-0.8,0-1.2-0.4s-0.4-0.8-0.8-0.8c-0.4,0-0.4,0-0.4,0.4c-0.4,0.8,0,2-0.8,2.8c-0.4,0.4-0.8,0.8-1.2,0.8
		c-0.4,0.4-0.4,0.4-0.8,0.4c-0.4,0.4-0.4,0.4-0.4,0.8s0,0.8,0.4,1.2c0,0.4,0.4,0.4,0,0.8c0.4,0,0,0,0,0.8c0.4,1.2,1.6,2.4,2.8,2.8
		c0.4,0,0.8,0.4,0.8,0.8c0,0.4-0.8,0.8-1.2,0.8c-1.6,0-3.2-0.8-4.4-2c-0.4-0.4-1.2-0.8-1.65-1.6v-0.8v-0.8v-1.2v-0.4
		c0.04,0,0.04-0.4-0.36-0.49h-0.4c0,0.09-0.4,0.09-0.4,0.5h-0.4h-1.2h-1.2C22.35,24.67,27.56,20.26,33.96,20.26z M40.37,43.89
		c-0.4,0.8-1.6,1.6-2.4,1.2c-0.4-0.4-0.8-0.4-1.2-0.8c-0.4-0.4-0.8-0.4-1.6-0.4c-1.2,0-2.4,0.4-3.6-0.4c-0.8-0.4-1.6-1.2-1.6-2.4
		c0-0.8,1.2-1.2,2-1.6c0.8-0.4,2-0.8,2.8-1.2c0,0,1.2-0.4,1.6,0c0.4,0,0.8,0,1.2,0.4c0.4,0,0.4,0.4,0.8,0.8c0.4,0.4,0.4,0.8,0.8,1.2
		c0.4,0.4,0.8,0.8,1.2,1.2s0.4,0.8,0.4,1.2C41.17,43.09,40.77,43.49,40.37,43.89z"/>
</g>
<g>
	<path class="st0" d="M159.65,6.43h-18.53v5.75h18.53V6.43z M162.2,14.74h-24.28v5.75h24.28V14.74z M159.65,23.68h-19.17v5.75h19.17
		V23.68z M140.48,37.74h19.17v-5.75h-19.17V37.74z M153.26,54.35h-6.39v-7.67h6.39V54.35z M162.2,6.43v7.03h6.39v14.1v0.6h-7.03
		v7.03h6.94c-0.66,7.28-2.71,14.8-8.86,21.04v-15.3h-19.17v21.72h6.39v-1.92h12.78V59.7c1.57,1.29,3.32,3.23,4.26,4.52
		c8.14-8.33,10.59-18.91,11.28-29.04h6.83v-7.03h-5.75v-1.39v-13.3h7.59c0.07,23.76,0.27,45.59,7.39,48.14
		c4.33,1.68,7.79-0.44,8.86-10.08c-1.2-1.12-3.13-4.11-4.33-6.03c-0.2,4.29-0.6,8.58-1.07,8.46c-3.2-0.75-3.46-26.37-2.8-47.52
		C191.9,6.43,162.2,6.43,162.2,6.43z M219.07,31.99h25.56v3.19h-25.56V31.99z M219.07,23.68h25.56v3.19h-25.56V23.68z M219.07,14.74
		h25.56v3.19h-25.56V14.74z M224.84,44.05c3.39,2.74,7.1,6.68,8.7,9.42l5.95-4.07c-1.66-2.67-5.18-6.05-8.38-8.46h21.18V8.99h-17.85
		c0.7-1.34,1.54-2.8,2.3-4.39l-9.22-1.08c-0.26,1.59-0.83,3.63-1.41,5.47H211.4v31.95h18.24L224.84,44.05z M207.38,61.65
		c3.83-3.77,6.13-9.46,7.73-14.7l-6.77-2.43c-1.34,4.73-3.9,9.65-7.35,12.72L207.38,61.65z M229.03,56.91
		c-3.12,0-3.57-0.2-3.57-2.12v-9.38h-7.67v9.51c0,6.83,2.01,9.02,10.46,9.02h10.53c6.3,0,8.45-1.99,9.29-9.81
		c-2.01-0.46-5.26-1.66-6.82-2.78c-0.32,4.91-0.78,5.57-3.18,5.57L229.03,56.91L229.03,56.91z M244.56,47.59
		c4.41,4.22,8.95,10.1,10.73,14.18l6.52-4.28c-1.92-4.28-6.71-9.84-11.18-13.8L244.56,47.59z M324.5,35.18h-24.92V16.01h21.09V8.35
		h-51.12v7.67h21.72v19.17h-24.92v7.67h24.92v21.09h8.31v-21.1h24.92V35.18z M273.64,19.73c2.04,4.28,4.03,9.84,4.66,13.29l7.41-2.3
		c-0.7-3.58-3-8.95-5.11-13.03L273.64,19.73z M310.95,32.9c2.17-3.26,4.73-8.43,7.03-13.35l-8.11-2.04
		c-1.21,4.15-3.51,9.78-5.56,13.48L310.95,32.9z M372.42,42.85v10.86h-26.84V42.85H372.42z M337.92,63.94h7.67v-2.56h26.84v2.56
		h8.31V35.82h-42.81v28.12H337.92z M365.65,15c1.98,1.73,4.09,3.64,6.13,5.69c-7.35,0.32-14.76,0.64-21.66,0.89
		c3.07-4.66,6.26-10.03,8.95-15.08l-8.75-2.81c-2.17,5.62-5.81,12.65-9.39,18.21c-3.58,0.06-6.9,0.19-9.84,0.26l0.45,7.67
		c11.88-0.45,29.71-1.15,46.58-2.04c1.73,2.11,3.13,4.09,4.09,5.81l6.58-5.05c-3.26-5.5-10.86-12.84-17.19-18.02L365.65,15z"/>
</g>
</svg>
