<?xml version="1.0" encoding="utf-8"?>
<!-- Generator: Adobe Illustrator 25.2.3, SVG Export Plug-In . SVG Version: 6.00 Build 0)  -->
<svg version="1.1" id="圖層_1" xmlns="http://www.w3.org/2000/svg" xmlns:xlink="http://www.w3.org/1999/xlink" x="0px" y="0px"
	 viewBox="0 0 50 50" style="enable-background:new 0 0 50 50;" xml:space="preserve">
<style type="text/css">
	.st0{fill:#006EAA;}
</style>
<g>
	<rect x="10.6" y="27.6" class="st0" width="29.3" height="2.2"/>
	<rect x="10.6" y="19.8" class="st0" width="29.3" height="2.2"/>
	<rect x="10.6" y="11.9" class="st0" width="9.8" height="2.2"/>
	<path class="st0" d="M43.5,0.5h-37c-2,0-3.7,1.7-3.7,3.7v16.9v2.8v21.9c0,2,1.7,3.7,3.7,3.7h24.6c0.1,0,0.2,0,0.3,0
		c0.1,0,0.1,0,0.2,0c0.2-0.1,0.3-0.2,0.4-0.3l14.8-14.8c0.1-0.1,0.2-0.3,0.3-0.4c0-0.1,0-0.1,0-0.2c0-0.1,0-0.2,0-0.3v-9.6v-2.8V4.2
		C47.2,2.2,45.5,0.5,43.5,0.5z M32.4,45.3v-9.3c0-0.7,0.5-1.2,1.2-1.2H43L32.4,45.3z M44.7,23.9v8.3H33.6c-2,0-3.7,1.7-3.7,3.7V47
		H6.5c-0.7,0-1.2-0.5-1.2-1.2V23.9v-2.8v-17C5.3,3.5,5.8,3,6.5,3h37c0.7,0,1.2,0.5,1.2,1.2v16.9C44.7,21.1,44.7,23.9,44.7,23.9z"/>
</g>
</svg>
