<?xml version="1.0" encoding="utf-8"?>
<!-- Generator: Adobe Illustrator 25.2.3, SVG Export Plug-In . SVG Version: 6.00 Build 0)  -->
<svg version="1.1" id="圖層_1" xmlns="http://www.w3.org/2000/svg" xmlns:xlink="http://www.w3.org/1999/xlink" x="0px" y="0px"
	 viewBox="0 0 50 50" style="enable-background:new 0 0 50 50;" xml:space="preserve">
<style type="text/css">
	.st0{fill:#006EAA;}
</style>
<g>
	<g>
		<path class="st0" d="M25,49C11.8,49,1,38.2,1,25S11.8,1,25,1s24,10.8,24,24S38.2,49,25,49z M25,3.8C13.3,3.8,3.8,13.3,3.8,25
			S13.3,46.2,25,46.2S46.2,36.7,46.2,25S36.7,3.8,25,3.8z"/>
	</g>
	<g>
		<path class="st0" d="M30.5,31.2c0-1-0.4-1.9-1.3-2.6c-0.9-0.7-2.3-1.4-4.2-1.9c-1.2-0.3-2.3-0.7-3.3-1.1c-1-0.4-1.8-0.9-2.5-1.5
			s-1.2-1.3-1.6-2c-0.4-0.8-0.6-1.6-0.6-2.6c0-0.9,0.2-1.8,0.5-2.6s0.8-1.4,1.4-2s1.3-1,2.2-1.4c0.9-0.4,1.8-0.6,2.9-0.7V9h2.9v3.7
			c2.2,0.3,3.9,1.1,5.1,2.4s1.8,3.1,1.8,5.4h-3.6c0-0.8-0.1-1.5-0.3-2.1s-0.5-1.2-0.9-1.6c-0.4-0.5-0.9-0.8-1.5-1.1s-1.3-0.4-2-0.4
			c-1.6,0-2.8,0.4-3.6,1.1c-0.8,0.7-1.2,1.7-1.2,2.9c0,0.6,0.1,1.1,0.3,1.5s0.5,0.8,1,1.2c0.5,0.4,1,0.7,1.7,1s1.6,0.6,2.6,0.9
			c1.2,0.4,2.3,0.7,3.3,1.2c1,0.4,1.8,0.9,2.5,1.5c0.7,0.6,1.2,1.2,1.5,2s0.5,1.6,0.5,2.6c0,1-0.2,1.8-0.5,2.6
			c-0.4,0.8-0.9,1.4-1.5,2c-0.6,0.6-1.4,1-2.4,1.3c-0.9,0.3-2,0.6-3.1,0.7V41h-2.9v-3.2c-1-0.1-2-0.3-2.9-0.6
			c-0.9-0.3-1.8-0.8-2.5-1.4s-1.3-1.4-1.7-2.3s-0.6-2-0.6-3.3h3.6c0,0.9,0.2,1.7,0.5,2.3s0.7,1.1,1.3,1.5s1.1,0.6,1.8,0.8
			s1.3,0.2,2,0.2c0.9,0,1.6-0.1,2.3-0.3c0.7-0.2,1.2-0.4,1.7-0.8s0.8-0.8,1.1-1.2C30.3,32.3,30.5,31.8,30.5,31.2z"/>
	</g>
</g>
</svg>
