<?xml version="1.0" encoding="utf-8"?>
<!-- Generator: Adobe Illustrator 25.2.3, SVG Export Plug-In . SVG Version: 6.00 Build 0)  -->
<svg version="1.1" id="圖層_1" xmlns="http://www.w3.org/2000/svg" xmlns:xlink="http://www.w3.org/1999/xlink" x="0px" y="0px"
	 viewBox="0 0 50 50" style="enable-background:new 0 0 50 50;" xml:space="preserve">
<style type="text/css">
	.st0{fill:#3BB6D5;}
</style>
<path class="st0" d="M49,13.7L36.3,1c-0.3-0.3-0.7-0.5-1.1-0.5c-0.4,0-0.8,0.2-1.1,0.5L1,34.1c-0.3,0.3-0.5,0.7-0.4,1.1l0.1,12.7
	c0,0.8,0.7,1.5,1.5,1.5l12.7,0.1c0,0,0,0,0,0c0.4,0,0.8-0.2,1.1-0.5l33.1-33.1C49.6,15.3,49.6,14.3,49,13.7z M10.1,38.2l-0.2,0.2
	l1.8,1.8l25.2-25.2l4.8,4.8L14.4,47L4.2,46.9c-0.6,0-1-0.5-1.1-1L3,35.6L30.2,8.4l4.8,4.8L10.1,38.2z M45.8,15.6l-2.2,2.2L32.2,6.4
	l2.2-2.2c0.2-0.2,0.5-0.3,0.8-0.3l0,0c0.3,0,0.5,0.1,0.8,0.3l9.9,9.9C46.2,14.5,46.2,15.2,45.8,15.6z"/>
</svg>
