<?xml version="1.0" encoding="utf-8"?>
<!-- Generator: Adobe Illustrator 25.2.3, SVG Export Plug-In . SVG Version: 6.00 Build 0)  -->
<svg version="1.1" id="圖層_1" xmlns="http://www.w3.org/2000/svg" xmlns:xlink="http://www.w3.org/1999/xlink" x="0px" y="0px"
	 viewBox="0 0 50 50" style="enable-background:new 0 0 50 50;" xml:space="preserve">
<style type="text/css">
	.st0{fill:#3BB6D5;}
</style>
<path class="st0" d="M28.6,1.7c-2.2-1.7-5.1-1.7-7.2,0L1.2,17.2V20v1.9v4.7V44c0,3,2.3,5.5,5.2,5.5h9.7h2.7h12.5H34h9.7
	c2.9,0,5.2-2.5,5.2-5.5V26.6v-4.7V20v-2.8L28.6,1.7z M31.2,46.6H18.8V36.5c0-3.7,2.8-6.6,6.2-6.6h0.1c3.4,0,6.2,3,6.2,6.6
	C31.2,36.5,31.2,46.6,31.2,46.6z M46.1,44c0,1.5-1.1,2.7-2.5,2.7h-9.7V36.5c0-5.2-4-9.5-8.9-9.5h-0.1C20,27,16,31.2,16,36.5v10.2
	H6.3c-1.4,0-2.5-1.2-2.5-2.7V26.6v-4.7V20v-1.3L22.9,4.1c1.2-0.9,2.9-0.9,4.1,0l19.1,14.6V20v1.9v4.7L46.1,44L46.1,44z"/>
</svg>
