<?xml version="1.0" encoding="utf-8"?>
<!-- Generator: Adobe Illustrator 25.2.3, SVG Export Plug-In . SVG Version: 6.00 Build 0)  -->
<svg version="1.1" id="圖層_1" xmlns="http://www.w3.org/2000/svg" xmlns:xlink="http://www.w3.org/1999/xlink" x="0px" y="0px"
	 viewBox="0 0 50 50" style="enable-background:new 0 0 50 50;" xml:space="preserve">
<style type="text/css">
	.st0{fill:#3BB6D5;}
</style>
<g>
	<rect x="12" y="24.3" class="st0" width="26.3" height="2.5"/>
	<rect x="12" y="17.2" class="st0" width="19.1" height="2.5"/>
	<path class="st0" d="M25,1.4c-13.5,0-24.5,9.6-24.5,21.4c0,6.8,3.6,12.8,9.2,16.7v7c0,1.7,1.8,2.7,3.3,1.8l7.4-4.5
		c1.5,0.2,3,0.4,4.6,0.4c13.5,0,24.5-9.6,24.5-21.4S38.5,1.4,25,1.4z M25,41.1c-1.2,0-2.4-0.1-3.6-0.3c-1-0.2-2.1,0-3,0.6l-4.5,2.7
		c-0.6,0.3-1.2-0.1-1.2-0.7l0.1-3.6c0-1.2-0.6-2.3-1.6-3.1c-4.6-3.4-7.6-8.4-7.6-14C3.6,12.6,13.2,4.4,25,4.4s21.4,8.2,21.4,18.4
		S36.8,41.1,25,41.1z"/>
</g>
</svg>
