<svg id="圖層_1" data-name="圖層 1" xmlns="http://www.w3.org/2000/svg" viewBox="0 0 48.74 48.73"><defs><style>.cls-1{fill:#3bb6d5;}</style></defs><rect class="cls-1" x="13.71" y="18.08" width="22.1" height="2.28"/><rect class="cls-1" x="13.71" y="24.62" width="22.1" height="2.28"/><rect class="cls-1" x="13.71" y="31.16" width="14.63" height="2.28"/><path class="cls-1" d="M44.17,40a23.93,23.93,0,0,0,5.2-15A24.37,24.37,0,0,0,20,1.14,1.58,1.58,0,0,0,19,1.89a1.62,1.62,0,0,0-.16,1.29l.19.64a1.59,1.59,0,0,0,1.86,1.1A20.49,20.49,0,0,1,45.5,25a20.12,20.12,0,0,1-4.31,12.53l-1.38-1.14a1.18,1.18,0,0,0-1.2-.19,1.19,1.19,0,0,0-.74,1L37.17,44a1.18,1.18,0,0,0,.42,1,1.21,1.21,0,0,0,.76.28,1.41,1.41,0,0,0,.35,0l6.57-2h0a1.18,1.18,0,0,0,.81-.89,1.14,1.14,0,0,0-.41-1.16Z" transform="translate(-0.63 -0.63)"/><path class="cls-1" d="M31,46.18a1.59,1.59,0,0,0-1.86-1.1A20.49,20.49,0,0,1,4.5,25,20.12,20.12,0,0,1,8.81,12.47l1.37,1.13a1.14,1.14,0,0,0,1.2.2,1.18,1.18,0,0,0,.75-1L12.83,6a1.19,1.19,0,0,0-.43-1.06,1.16,1.16,0,0,0-1.09-.21l-6.58,2a1.19,1.19,0,0,0-.41,2.05L5.83,10A23.93,23.93,0,0,0,.63,25,24.37,24.37,0,0,0,30,48.85,1.62,1.62,0,0,0,31,48.1a1.6,1.6,0,0,0,.15-1.28Z" transform="translate(-0.63 -0.63)"/></svg>