<svg id="圖層_1" data-name="圖層 1" xmlns="http://www.w3.org/2000/svg" viewBox="0 0 48.11 49.8"><defs><style>.cls-1{fill:#3bb6d5;}</style></defs><path class="cls-1" d="M45.23,5.16H42.16a6.33,6.33,0,0,0-12.4,0H11.52A3.84,3.84,0,0,0,7.69,9V11.9H4.77A3.84,3.84,0,0,0,.94,15.73V46.07A3.84,3.84,0,0,0,4.77,49.9H38.48a3.84,3.84,0,0,0,3.83-3.83V37.83l5.59-5.59a3.91,3.91,0,0,0,1.15-2.78V9A3.82,3.82,0,0,0,45.23,5.16ZM34.65,32.58v8H11.52a1.22,1.22,0,0,1-1.22-1.22V9a1.22,1.22,0,0,1,1.22-1.22H29.76a6.39,6.39,0,0,0,1.68,3.14L29,15.07a1.32,1.32,0,0,0-.15,1,1.3,1.3,0,0,0,.59.8,1.34,1.34,0,0,0,1.79-.45l2.43-4.05a6.27,6.27,0,0,0,2.35.47,6.38,6.38,0,0,0,6.2-5.06h3.07A1.22,1.22,0,0,1,46.45,9V28.75h-8A3.84,3.84,0,0,0,34.65,32.58ZM36,10.21a3.75,3.75,0,1,1,3.75-3.75A3.75,3.75,0,0,1,36,10.21ZM11.52,43.16H35.36A3.91,3.91,0,0,0,38.14,42l1.57-1.57v5.63a1.22,1.22,0,0,1-1.22,1.22H4.77a1.22,1.22,0,0,1-1.22-1.22V15.73a1.22,1.22,0,0,1,1.22-1.22H7.68V39.33A3.84,3.84,0,0,0,11.52,43.16ZM37.26,32.58a1.22,1.22,0,0,1,1.22-1.22H45.1L37.26,39.2Z" transform="translate(-0.94 -0.1)"/></svg>