<?xml version="1.0" encoding="utf-8"?>
<!-- Generator: Adobe Illustrator 25.2.3, SVG Export Plug-In . SVG Version: 6.00 Build 0)  -->
<svg version="1.1" id="圖層_1" xmlns="http://www.w3.org/2000/svg" xmlns:xlink="http://www.w3.org/1999/xlink" x="0px" y="0px"
	 viewBox="0 0 50 50" style="enable-background:new 0 0 50 50;" xml:space="preserve">
<style type="text/css">
	.st0{fill:#006EAA;}
</style>
<g>
	<rect x="14.3" y="18.7" class="st0" width="22.1" height="2.3"/>
	<rect x="14.3" y="25.2" class="st0" width="22.1" height="2.3"/>
	<rect x="14.3" y="31.8" class="st0" width="14.6" height="2.3"/>
	<path class="st0" d="M44.2,40c3.4-4.3,5.2-9.5,5.2-15C49.4,11.6,38.4,0.6,25,0.6c-1.7,0-3.3,0.2-5,0.5c-0.4,0.1-0.8,0.4-1,0.8
		s-0.3,0.9-0.2,1.3L19,3.8c0.2,0.8,1,1.3,1.9,1.1c1.4-0.3,2.7-0.4,4.1-0.4c11.3,0,20.5,9.2,20.5,20.5c0,4.6-1.5,8.9-4.3,12.5
		l-1.4-1.1c-0.3-0.3-0.8-0.3-1.2-0.2c-0.4,0.2-0.7,0.5-0.7,1L37.2,44c0,0.4,0.1,0.8,0.4,1c0.2,0.2,0.5,0.3,0.8,0.3
		c0.1,0,0.2,0,0.3,0l6.6-2l0,0c0.4-0.1,0.7-0.5,0.8-0.9c0.1-0.4-0.1-0.9-0.4-1.2L44.2,40z"/>
	<path class="st0" d="M31,46.2c-0.2-0.8-1-1.3-1.9-1.1c-1.4,0.3-2.7,0.4-4.1,0.4C13.7,45.5,4.5,36.3,4.5,25c0-4.6,1.5-8.9,4.3-12.5
		l1.4,1.1c0.4,0.3,0.8,0.4,1.2,0.2c0.4-0.2,0.7-0.5,0.8-1L12.8,6c0.1-0.4-0.1-0.8-0.4-1.1c-0.3-0.2-0.7-0.3-1.1-0.2l-6.6,2
		C4.3,6.8,4,7.2,3.9,7.6C3.8,8.1,4,8.5,4.3,8.8L5.8,10c-3.4,4.3-5.2,9.5-5.2,15c0,13.4,10.9,24.4,24.4,24.4c1.7,0,3.3-0.2,5-0.5
		c0.4-0.1,0.8-0.4,1-0.8c0.2-0.4,0.3-0.8,0.1-1.3L31,46.2z"/>
</g>
</svg>
