<?xml version="1.0" encoding="utf-8"?>
<!-- Generator: Adobe Illustrator 25.2.3, SVG Export Plug-In . SVG Version: 6.00 Build 0)  -->
<svg version="1.1" id="圖層_1" xmlns="http://www.w3.org/2000/svg" xmlns:xlink="http://www.w3.org/1999/xlink" x="0px" y="0px"
	 viewBox="0 0 50 50" style="enable-background:new 0 0 50 50;" xml:space="preserve">
<style type="text/css">
	.st0{fill:#006EAA;}
</style>
<path class="st0" d="M45.2,5.2h-3.1C41.5,2.2,39,0.1,36,0.1s-5.6,2.2-6.2,5.1H11.5C9.4,5.2,7.7,6.9,7.7,9v2.9H4.8
	c-2.1,0-3.8,1.7-3.8,3.8v30.3c0,2.1,1.7,3.8,3.8,3.8h33.7c2.1,0,3.8-1.7,3.8-3.8v-8.2l5.6-5.6c0.7-0.7,1.2-1.7,1.2-2.8V9
	C49.1,6.9,47.3,5.2,45.2,5.2z M34.7,32.6v8H11.5c-0.7,0-1.2-0.5-1.2-1.2V9c0-0.7,0.6-1.2,1.2-1.2h18.2c0.2,1.2,0.8,2.3,1.7,3.1
	L29,15.1c-0.2,0.3-0.2,0.6-0.1,1s0.3,0.6,0.6,0.8c0.6,0.4,1.4,0.1,1.8-0.5l2.4-4.1c0.8,0.3,1.6,0.5,2.3,0.5c3,0,5.6-2.1,6.2-5.1h3.1
	c0.7,0,1.2,0.5,1.2,1.2v19.8h-8C36.4,28.8,34.7,30.5,34.7,32.6z M36,10.2c-2.1,0-3.8-1.7-3.8-3.8s1.7-3.8,3.8-3.8s3.8,1.7,3.8,3.8
	S38,10.2,36,10.2z M11.5,43.2h23.8c1,0,2-0.4,2.8-1.2l1.6-1.6v5.6c0,0.7-0.5,1.2-1.2,1.2H4.8c-0.7,0-1.2-0.5-1.2-1.2V15.7
	c0-0.7,0.5-1.2,1.2-1.2h2.9v24.8C7.7,41.4,9.4,43.2,11.5,43.2z M37.3,32.6c0-0.7,0.5-1.2,1.2-1.2h6.6l-7.8,7.8V32.6z"/>
</svg>
