<svg id="圖層_1" data-name="圖層 1" xmlns="http://www.w3.org/2000/svg" viewBox="0 0 48 48"><defs><style>.cls-1{fill:#3bb6d5;}</style></defs><path class="cls-1" d="M25,49A24,24,0,1,1,49,25,24,24,0,0,1,25,49ZM25,3.82A21.18,21.18,0,1,0,46.18,25,21.2,21.2,0,0,0,25,3.82Z" transform="translate(-1 -1)"/><path class="cls-1" d="M30.46,31.18a3.27,3.27,0,0,0-1.3-2.63A11.68,11.68,0,0,0,25,26.65a23.67,23.67,0,0,1-3.28-1.13A10.22,10.22,0,0,1,19.18,24a6.34,6.34,0,0,1-1.61-2A5.87,5.87,0,0,1,17,19.32a6.39,6.39,0,0,1,.5-2.56,6,6,0,0,1,1.41-2,7,7,0,0,1,2.21-1.37A10.66,10.66,0,0,1,24,12.7V9h2.91v3.71A7.86,7.86,0,0,1,32,15.09a7.87,7.87,0,0,1,1.84,5.43H30.26a6.57,6.57,0,0,0-.32-2.08A4.53,4.53,0,0,0,29,16.81a4.36,4.36,0,0,0-1.51-1.07,5.1,5.1,0,0,0-2-.39,5.25,5.25,0,0,0-3.57,1.06,3.65,3.65,0,0,0-1.23,2.86,3.21,3.21,0,0,0,1.3,2.7,7.75,7.75,0,0,0,1.74,1,21.45,21.45,0,0,0,2.57.9A28,28,0,0,1,29.55,25,10.21,10.21,0,0,1,32,26.53a5.91,5.91,0,0,1,1.55,2,6,6,0,0,1,.54,2.63,6.18,6.18,0,0,1-.54,2.63,5.91,5.91,0,0,1-1.51,2,7.55,7.55,0,0,1-2.37,1.34,12.06,12.06,0,0,1-3.1.66V41H23.69V37.78a12.22,12.22,0,0,1-2.92-.61A7.55,7.55,0,0,1,18.3,35.8a6.54,6.54,0,0,1-1.72-2.27,7.6,7.6,0,0,1-.64-3.27h3.61A5,5,0,0,0,20,32.61,4.2,4.2,0,0,0,21.3,34.1a5.06,5.06,0,0,0,1.75.79,8.23,8.23,0,0,0,2,.24,8.8,8.8,0,0,0,2.28-.27A5.15,5.15,0,0,0,29,34.08a3.49,3.49,0,0,0,1.08-1.25A3.78,3.78,0,0,0,30.46,31.18Z" transform="translate(-1 -1)"/></svg>